<?xml version="1.0" encoding="UTF-8"?><svg id="Layer_1" xmlns="http://www.w3.org/2000/svg" xmlns:xlink="http://www.w3.org/1999/xlink" viewBox="0 0 200 200"><defs><style>.cls-1,.cls-2{fill:none;}.cls-2{stroke:#fff;stroke-miterlimit:10;stroke-width:6px;}.cls-3{clip-path:url(#clippath);}.cls-4{fill:#f2949c;}.cls-5{fill:#fff;}.cls-6{fill:#ffb663;}.cls-7{clip-path:url(#clippath-1);}</style><clipPath id="clippath"><circle class="cls-1" cx="99.6" cy="101.54" r="94"/></clipPath><clipPath id="clippath-1"><circle class="cls-1" cx="-105.59" cy="98.07" r="94"/></clipPath></defs><circle class="cls-6" cx="99.6" cy="101.54" r="94"/><g class="cls-3"><path class="cls-4" d="M44.83,22.85c-1.59,4.1-1.23,8.7,.54,12.68s4.96,6.51,8.62,8.43c3.18,1.67,6.91,2.98,9.3,5.45,2.58,2.66,2.85,6.58,2.94,10.2,.11,4.33,.06,8.63,1.22,12.85s3.26,8.14,6.01,11.56,6.43,5.97,10.19,8.36c3.48,2.21,6.16,4.57,7.97,8.28,1.63,3.35,2.45,7.41,3.26,11.16,.89,4.14,1.82,8.22,3.55,12.1s4.49,7.52,8.23,9.72,8.31,2.76,12.56,3.85c3.76,.97,6.82,2.71,8.96,5.88s3.42,7.01,4.41,10.84c2.13,8.26,3.96,17.08,11.07,22.62,6.26,4.88,14.39,6.28,22.11,5.13,8.08-1.21,15.27-5.81,20.79-11.71,6.02-6.44,10.23-14.26,13.55-22.36,3.69-8.98,6.01-18.45,7.09-28.1,2.06-18.47-1.18-37.28-9.27-54-3.91-8.08-8.99-15.61-15.02-22.26-6.58-7.26-14.3-13.36-22.11-19.23s-15.63-11.94-24.86-15.45c-9.14-3.47-19.16-4.64-28.86-5.32s-19.04-.4-28.44,1.12c-9.04,1.46-18.37,4.16-26.33,8.79-3.51,2.04-6.91,5.06-7.67,9.24-.29,1.59,.44,3.23,2.1,3.69,1.46,.4,3.4-.49,3.69-2.1,.31-1.68,1.01-2.68,2.36-3.88,1.27-1.13,2.97-2.05,4.57-2.85,3.86-1.94,7.91-3.47,12.05-4.68,8.52-2.49,17.36-3.56,26.22-3.67,9.08-.12,18.29,.57,27.21,2.28,4.47,.85,8.95,2.01,13.14,3.82s8.14,4.29,11.9,6.92c7.63,5.33,15.18,10.98,22.18,17.13,6.59,5.81,12.47,12.29,17.22,19.69,9.25,14.42,14.31,31.31,14.53,48.45,.23,17.47-4.19,35.71-13.49,50.61-4.07,6.52-9.42,12.36-16.4,15.78-5.78,2.83-12.88,3.35-19.08,1.24-1.49-.51-2.71-1.09-4.2-2.05-1.26-.81-2.39-1.77-3.54-3.06s-2.18-3.05-3-4.8-1.39-3.64-1.92-5.51c-2.22-7.88-3.48-16.57-9.49-22.67-3.02-3.07-6.92-4.66-11.05-5.61-3.75-.87-7.9-1.31-11.08-3.7-6.04-4.54-6.94-13.45-8.52-20.32-.88-3.82-1.98-7.65-3.92-11.08-2.22-3.9-5.53-6.64-9.26-9.02-3.41-2.17-6.64-4.31-9.15-7.54-2.3-2.96-3.9-6.39-4.75-10.03-1.83-7.85,.94-16.75-4.62-23.66-2.35-2.92-5.78-4.59-9.08-6.19s-6.31-3.04-8.04-6.08-1.81-6.22-.59-9.37c.58-1.51-.64-3.29-2.1-3.69-1.7-.47-3.1,.58-3.69,2.1h0Z"/><path class="cls-4" d="M57.04,14.46c-3.6,1.63-6.43,5.72-7.14,9.56-.8,4.35-.27,8.95,2.36,12.63,2.32,3.26,5.29,5.77,8.8,7.68,2.56,1.4,5.26,2.52,7.6,4.3l-1.82-1.41c.88,.71,1.67,1.48,2.36,2.37l-1.41-1.82c.64,.87,1.17,1.78,1.61,2.77l-.91-2.15c.72,1.71,1.14,3.5,1.4,5.33l-.32-2.39c.91,6.96-.1,14.17,2.01,20.98,1.33,4.3,3.72,8.34,7.2,11.24,3.28,2.73,7.01,4.73,10.39,7.32l-1.82-1.41c1.48,1.17,2.78,2.49,3.94,3.97l-1.41-1.82c1.57,2.08,2.8,4.36,3.82,6.75l-.91-2.15c1.51,3.66,2.51,7.5,3.43,11.35,1.07,4.48,1.95,9.02,4.16,13.13,2.74,5.1,7.64,8.32,13.08,9.93,3.66,1.08,7.51,1.38,11.05,2.84l-2.15-.91c1.37,.6,2.63,1.36,3.83,2.26l-1.82-1.41c1.47,1.16,2.76,2.5,3.92,3.97l-1.41-1.82c1.93,2.52,3.43,5.32,4.68,8.24l-.91-2.15c4.23,10.15,6.46,21.72,15.19,29.25,4.79,4.13,10.71,7.09,17.18,6.89,6.68-.21,12.38-3.23,17.37-7.47,3.93-3.34,7.12-7.63,10.01-11.87,2.52-3.7,4.7-7.64,6.52-11.73,4.22-9.47,6.77-19.21,7.74-29.54,1.85-19.67-3.49-39.47-14.42-55.86-5.83-8.74-12.83-16.67-20.25-24.09-3.51-3.51-7.11-6.93-10.73-10.33-4.22-3.96-8.54-8.02-13.7-10.73-10.31-5.39-22.16-6.62-33.53-7.97-11.6-1.38-23.14-1.67-34.72,.15-2.62,.41-5.21,.97-7.77,1.67-5.65,1.53-8.26,8.2-5.38,13.22,3.18,5.55,6.38,11.09,9.55,16.64,2.94,5.15,5.81,10.34,8.11,15.81l-.91-2.15c1.19,2.87,2.2,5.79,3.02,8.79s1.54,5.97,2.65,8.84c1.34,3.45,2.95,6.61,4.99,9.68,1.71,2.58,3.47,5.12,5.15,7.73,3.48,5.42,6.74,10.99,9.75,16.69s5.55,11.97,9.8,17.1c2.15,2.59,4.97,4.48,7.44,6.73s4.62,4.71,6.64,7.31l-1.41-1.82c4.87,6.34,8.61,13.46,13.74,19.6,2.43,2.92,5.51,5.71,8.96,7.35,4.98,2.36,10.19,3.13,15.61,1.83,4.56-1.09,8.93-3.82,12.19-7.15,3.6-3.68,5.88-8.08,7.76-12.8,3.06-7.65,4.45-16.13,5.29-24.28,1.66-16.17-1.2-33.39-10.41-47.04-4.73-7.01-10.58-13.09-16.81-18.76s-12.9-11.36-19.43-16.94c-3.48-2.97-6.94-6.2-10.97-8.4s-8.48-3.45-13.01-4.24c-8.73-1.52-17.49-2.85-26.24-4.27l-6.62-1.07c-1.6-.43-3.19-.43-4.79,0-1.52,.43-2.85,1.2-3.97,2.31-2.07,2.07-3.48,5.88-2.31,8.76,3.52,8.66,8.03,16.81,12.43,25.05,4.16,7.79,8.31,15.57,12.47,23.36,7.74,14.48,15.6,28.94,24.64,42.67,4.84,7.36,10.04,14.48,15.6,21.3,2.79,3.43,5.55,6.75,9.27,9.24,4.32,2.89,10.4,3.73,15.25,1.76,2.85-1.16,5.11-2.53,7.42-4.61,1.76-1.57,3.19-3.5,4.58-5.39,2.67-3.64,4.63-7.79,6.31-11.95,3.75-9.33,2.02-19.22-.37-28.64-2.11-8.32-4.75-16.51-7.91-24.49-1.86-4.69-3.81-8.94-7.01-12.86s-7.69-6.09-12.35-7.86c-1.86-.7-3.72-1.39-5.56-2.16l2.15,.91c-6.97-2.98-13.3-6.93-19.48-11.29s-11.78-8.26-18.47-11.08c-4.55-1.92-9.07-3.04-14.02-3.4-3.1-.23-6.26,1.88-7.77,4.46-1.66,2.84-1.55,6.23,0,9.08,7.94,14.58,18.26,27.7,26.37,42.17,6.88,12.28,12.11,25.46,19.78,37.3,4.56,7.04,9.92,13.72,16.53,18.94,1.61,1.27,3.07,2.19,5.17,2.48,1.92,.26,4.06,.01,5.74-1.07,1.3-.84,2.39-1.93,3.23-3.23,1.16-1.79,1.61-4.9,.91-6.94-4.38-12.62-8.85-25.21-13.42-37.77-4.48-12.29-9.05-24.64-15.15-36.23-3.85-7.33-8.74-16.66-18.36-16.43-3.19,.08-6.14,1.67-7.77,4.46-1.5,2.56-1.84,6.56,0,9.08,12.34,16.92,23.83,34.46,34.39,52.55,3.02,5.17,5.96,10.38,8.82,15.63,2.15,3.94,7.25,5.36,11.24,3.68,4.24-1.79,6.18-6.18,5.21-10.62l-10.88-50c-1-4.61-6.62-7.73-11.07-6.29-4.85,1.57-7.36,6.14-6.29,11.07l10.88,50,16.45-6.94c-10.04-18.38-20.99-36.26-32.84-53.53-3.39-4.93-6.84-9.82-10.37-14.65l-7.77,13.54c.36,0,.68,0,1.04,.06l-2.39-.32c.34,.07,.65,.16,.97,.28l-2.15-.91c.54,.24,1.01,.53,1.48,.87l-1.82-1.41c.76,.62,1.41,1.34,2.01,2.11l-1.41-1.82c2.38,3.22,4.22,6.93,6.03,10.49,1.91,3.77,3.66,7.61,5.31,11.5l-.91-2.15c6.24,14.79,11.41,30.06,16.75,45.2,1.56,4.43,3.11,8.87,4.65,13.31l15.04-8.76c-4.11-3.25-7.73-7.04-10.94-11.18l1.41,1.82c-7.28-9.49-12.36-20.39-17.63-31.05-2.78-5.62-5.66-11.19-8.88-16.57-3.55-5.93-7.41-11.67-11.23-17.43-4.41-6.65-8.78-13.34-12.6-20.36l-7.77,13.54c.66,.05,1.31,.12,1.97,.2l-2.39-.32c2.97,.42,5.82,1.28,8.59,2.43l-2.15-.91c7.53,3.22,14,8.35,20.71,12.94,3.59,2.46,7.3,4.73,11.2,6.68,4.69,2.35,9.6,4.05,14.43,6.06l-2.15-.91c1.41,.61,2.76,1.32,3.99,2.24l-1.82-1.41c1.03,.81,1.92,1.73,2.74,2.75l-1.41-1.82c1.61,2.11,2.79,4.47,3.82,6.9l-.91-2.15c2.4,5.74,4.43,11.64,6.23,17.59,1.82,6.02,3.61,12.2,4.45,18.45l-.32-2.39c.33,2.64,.41,5.29,.06,7.93l.32-2.39c-.36,2.36-1.05,4.62-1.97,6.82l.91-2.15c-1.49,3.44-3.34,6.82-5.61,9.8l1.41-1.82c-1.1,1.4-2.3,2.68-3.71,3.78l1.82-1.41c-.77,.57-1.58,1.06-2.45,1.46l2.15-.91c-.76,.32-1.51,.54-2.32,.67l2.39-.32c-.71,.08-1.4,.09-2.11,.01l2.39,.32c-.77-.12-1.48-.32-2.21-.61l2.15,.91c-.83-.38-1.58-.84-2.32-1.38l1.82,1.41c-1.94-1.51-3.52-3.41-5.09-5.29-1.74-2.07-3.43-4.19-5.09-6.33l1.41,1.82c-18.67-24.24-32.3-51.96-46.65-78.85-4.23-7.92-8.75-15.75-12.27-24.01l.91,2.15c-.18-.43-.36-.87-.54-1.31l-11.07,11.07,21.59,3.5c3.54,.57,7.07,1.13,10.61,1.72,3.25,.55,6.47,1.22,9.52,2.48l-2.15-.91c2.15,.94,4.09,2.18,5.95,3.61l-1.82-1.41c3.44,2.69,6.7,5.63,10.01,8.47,3.51,3.02,7.01,6.05,10.48,9.11,6.14,5.43,12.24,10.99,17.27,17.5l-1.41-1.82c2.86,3.74,5.28,7.75,7.15,12.08l-.91-2.15c2.06,4.88,3.39,10,4.11,15.24l-.32-2.39c.93,7,.78,14.07-.14,21.06l.32-2.39c-.9,6.67-2.31,13.49-4.88,19.73l.91-2.15c-1,2.34-2.21,4.56-3.76,6.58l1.41-1.82c-1,1.25-2.12,2.37-3.37,3.37l1.82-1.41c-1.26,.96-2.61,1.77-4.07,2.39l2.15-.91c-1.21,.48-2.45,.82-3.74,1l2.39-.32c-1.04,.11-2.06,.11-3.1,0l2.39,.32c-1.18-.17-2.31-.47-3.41-.92l2.15,.91c-1.3-.56-2.49-1.28-3.62-2.14l1.82,1.41c-1.93-1.51-3.58-3.32-5.09-5.25l1.41,1.82c-4.09-5.33-7.31-11.27-11.4-16.62-2.48-3.23-5.03-6.39-8.05-9.14-2.7-2.45-5.73-4.5-7.98-7.4l1.41,1.82c-2.55-3.43-4.19-7.46-6.12-11.26-2.03-3.99-4.18-7.93-6.44-11.8s-4.63-7.67-7.12-11.4-5.08-7.21-6.83-11.27l.91,2.15c-1.78-4.32-2.63-8.93-4.09-13.36-1.62-4.9-3.75-9.67-6.11-14.26-4.44-8.66-9.53-17.01-14.38-25.45l-5.38,13.22c3.16-.86,6.37-1.49,9.62-1.94l-2.39,.32c11.54-1.51,23.2-.57,34.69,.97l-2.39-.32c7.46,1.01,15.07,2.02,22.08,4.94l-2.15-.91c2.82,1.21,5.43,2.74,7.86,4.62l-1.82-1.41c3.13,2.47,5.98,5.27,8.88,8,2.68,2.53,5.35,5.08,7.97,7.69,5.32,5.29,10.42,10.79,15.02,16.72l-1.41-1.82c4.84,6.3,9.07,13.06,12.17,20.39l-.91-2.15c2.51,6.04,4.2,12.37,5.09,18.85l-.32-2.39c.95,7.13,.93,14.34-.01,21.46l.32-2.39c-.96,6.99-2.8,13.83-5.53,20.34l.91-2.15c-2.5,5.9-5.71,11.47-9.61,16.56l1.41-1.82c-2.09,2.7-4.36,5.24-7.03,7.37l1.82-1.41c-1.53,1.18-3.16,2.19-4.94,2.95l2.15-.91c-1.18,.47-2.37,.81-3.63,1.01l2.39-.32c-1.26,.16-2.5,.17-3.76,.01l2.39,.32c-1.22-.18-2.39-.51-3.54-.97l2.15,.91c-1.5-.64-2.87-1.46-4.16-2.45l1.82,1.41c-1.61-1.27-3.01-2.73-4.27-4.34l1.41,1.82c-1.76-2.33-3.1-4.91-4.25-7.59l.91,2.15c-1.83-4.37-3.15-8.92-4.92-13.31-2.04-5.04-4.39-9.51-7.9-13.7s-7.88-6.87-12.83-8.44c-3.73-1.19-7.71-1.44-11.36-2.92l2.15,.91c-.97-.42-1.88-.93-2.74-1.56l1.82,1.41c-.7-.55-1.31-1.16-1.86-1.85l1.41,1.82c-.73-.98-1.29-2.02-1.76-3.14l.91,2.15c-1.45-3.64-2.08-7.6-3.02-11.39-1.09-4.36-2.48-8.55-4.33-12.65s-4.34-7.67-7.55-10.53c-3.38-3.03-7.39-5.08-10.97-7.82l1.82,1.41c-1.1-.87-2.11-1.81-2.99-2.9l1.41,1.82c-.75-.98-1.37-2.03-1.87-3.16l.91,2.15c-.73-1.74-1.16-3.57-1.43-5.44l.32,2.39c-.93-7.07,.2-14.51-2.14-21.37-.69-2.03-1.54-4.08-2.78-5.85-1.85-2.63-3.8-4.48-6.43-6.35-3.15-2.24-6.9-3.44-10.01-5.77l1.82,1.41c-.89-.7-1.7-1.47-2.4-2.36l1.41,1.82c-.43-.59-.8-1.2-1.11-1.87l.91,2.15c-.23-.59-.39-1.17-.49-1.8l.32,2.39c-.07-.63-.08-1.24-.02-1.87l-.32,2.39c.09-.61,.23-1.19,.45-1.77l-.91,2.15c.2-.46,.44-.88,.74-1.28l-1.41,1.82c.25-.31,.52-.57,.82-.83l-1.82,1.41c.33-.24,.66-.43,1.03-.6,1.93-.87,3.6-3.42,4.14-5.38,.59-2.15,.33-5.02-.91-6.94s-3.08-3.61-5.38-4.14c-2.5-.57-4.61-.14-6.94,.91h0Z"/></g><g class="cls-7"><path class="cls-4" d="M-160.34,19.37c-1.59,4.1-1.23,8.7,.54,12.68s4.96,6.51,8.62,8.43c3.18,1.67,6.9,2.98,9.3,5.45,2.58,2.66,2.85,6.59,2.94,10.2,.11,4.33,.05,8.63,1.21,12.85s3.2,8.02,5.88,11.41,6.37,6.02,10.13,8.4c3.56,2.26,6.35,4.66,8.19,8.48,1.66,3.45,2.45,7.54,3.28,11.36,.89,4.11,1.82,8.16,3.57,12.01s4.55,7.5,8.32,9.65,8.33,2.69,12.58,3.8c3.76,.99,6.76,2.8,8.87,5.99s3.37,7.05,4.35,10.89c1.13,4.43,2.12,8.87,3.95,13.07,1.7,3.91,4.26,7.26,7.67,9.82,6.14,4.62,14.23,5.77,21.68,4.64,8.07-1.23,15.27-5.91,20.75-11.82,6-6.47,10.2-14.31,13.51-22.43,3.64-8.92,5.94-18.32,7.01-27.89,2.07-18.54-1.2-37.42-9.35-54.19-3.89-8.01-8.94-15.47-14.92-22.07-6.63-7.32-14.42-13.46-22.29-19.38s-15.64-11.92-24.89-15.4C-78.53,1.92-88.47,.76-98.09,.09c-9.49-.66-19.04-.4-28.44,1.11-9.05,1.46-18.37,4.15-26.33,8.78-3.51,2.04-6.91,5.06-7.68,9.24-.29,1.59,.44,3.23,2.1,3.69,1.46,.4,3.4-.49,3.69-2.1,.31-1.68,1.01-2.68,2.36-3.88,1.27-1.13,2.97-2.05,4.57-2.85,3.86-1.94,7.91-3.47,12.05-4.68,8.52-2.49,17.36-3.55,26.22-3.67,9-.11,18.13,.57,26.99,2.24,4.55,.86,9.11,2.02,13.37,3.86s8.14,4.29,11.9,6.92c7.57,5.29,15.06,10.89,22,16.99s12.51,12.28,17.28,19.68c9.28,14.4,14.37,31.28,14.63,48.4,.27,17.48-4.13,35.73-13.39,50.66-4.05,6.53-9.38,12.39-16.33,15.86-5.78,2.88-12.88,3.44-19.1,1.38-2.93-.97-5.61-2.62-7.79-5.04-1.1-1.22-2.11-2.85-2.93-4.55-.87-1.81-1.49-3.75-2.04-5.68-2.24-7.86-3.44-16.42-9.29-22.61-3-3.17-6.93-4.85-11.11-5.83-3.76-.88-7.9-1.31-11.12-3.63-6.12-4.42-7.06-13.35-8.62-20.2-.89-3.93-2.01-7.89-4.03-11.41-2.22-3.86-5.5-6.56-9.2-8.93-3.41-2.18-6.62-4.31-9.15-7.54-2.31-2.95-3.9-6.4-4.74-10.03-1.82-7.85,.94-16.75-4.61-23.66-2.34-2.92-5.78-4.59-9.07-6.19s-6.31-3.04-8.04-6.09-1.81-6.21-.59-9.37c.59-1.51-.64-3.29-2.1-3.69-1.7-.47-3.1,.58-3.69,2.1h0Z"/></g><circle class="cls-5" cx="120.85" cy="80.45" r="4.5"/><rect class="cls-2" x="66.35" y="67.95" width="67" height="67" rx="12" ry="12"/><circle class="cls-2" cx="100.35" cy="100.95" r="16"/></svg>