<?xml version="1.0" encoding="UTF-8"?><svg id="Layer_1" xmlns="http://www.w3.org/2000/svg" xmlns:xlink="http://www.w3.org/1999/xlink" viewBox="0 0 200 200"><defs><style>.cls-1{fill:none;}.cls-2{clip-path:url(#clippath);}.cls-3{fill:#f2949c;}.cls-4{fill:#fff;}.cls-5{fill:#ffb663;}</style><clipPath id="clippath"><circle class="cls-1" cx="103.41" cy="99.45" r="94"/></clipPath></defs><circle class="cls-5" cx="103.41" cy="99.45" r="94"/><g class="cls-2"><path class="cls-3" d="M48.66,20.75c-1.59,4.1-1.23,8.7,.54,12.68s4.96,6.51,8.62,8.43c3.18,1.67,6.9,2.98,9.3,5.45,2.58,2.66,2.85,6.59,2.94,10.2,.11,4.33,.05,8.63,1.21,12.85s3.2,8.02,5.88,11.41,6.37,6.02,10.13,8.4c3.56,2.26,6.35,4.66,8.19,8.48,1.66,3.45,2.45,7.54,3.28,11.36,.89,4.11,1.82,8.16,3.57,12.01s4.55,7.5,8.32,9.65,8.33,2.69,12.58,3.8c3.76,.99,6.76,2.8,8.87,5.99s3.37,7.05,4.35,10.89c1.13,4.43,2.12,8.87,3.95,13.07,1.7,3.91,4.26,7.26,7.67,9.82,6.14,4.62,14.23,5.77,21.68,4.64,8.07-1.23,15.27-5.91,20.75-11.82,6-6.47,10.2-14.31,13.51-22.43,3.64-8.92,5.94-18.32,7.01-27.89,2.07-18.54-1.2-37.42-9.35-54.19-3.89-8.01-8.94-15.47-14.92-22.07-6.63-7.32-14.42-13.46-22.29-19.38s-15.64-11.92-24.89-15.4c-9.08-3.41-19.02-4.57-28.65-5.24-9.49-.66-19.04-.4-28.44,1.11-9.05,1.46-18.37,4.15-26.33,8.78-3.51,2.04-6.91,5.06-7.68,9.24-.29,1.59,.44,3.23,2.1,3.69,1.46,.4,3.4-.49,3.69-2.1,.31-1.68,1.01-2.68,2.36-3.88,1.27-1.13,2.97-2.05,4.57-2.85,3.86-1.94,7.91-3.47,12.05-4.68,8.52-2.49,17.36-3.55,26.22-3.67,9-.11,18.13,.57,26.99,2.24,4.55,.86,9.11,2.02,13.37,3.86s8.14,4.29,11.9,6.92c7.57,5.29,15.06,10.89,22,16.99s12.51,12.28,17.28,19.68c9.28,14.4,14.37,31.28,14.63,48.4,.27,17.48-4.13,35.73-13.39,50.66-4.05,6.53-9.38,12.39-16.33,15.86-5.78,2.88-12.88,3.44-19.1,1.38-2.93-.97-5.61-2.62-7.79-5.04-1.1-1.22-2.11-2.85-2.93-4.55-.87-1.81-1.49-3.75-2.04-5.68-2.24-7.86-3.44-16.42-9.29-22.61-3-3.17-6.93-4.85-11.11-5.83-3.76-.88-7.9-1.31-11.12-3.63-6.12-4.42-7.06-13.35-8.62-20.2-.89-3.93-2.01-7.89-4.03-11.41-2.22-3.86-5.5-6.56-9.2-8.93-3.41-2.18-6.62-4.31-9.15-7.54-2.31-2.95-3.9-6.4-4.74-10.03-1.82-7.85,.94-16.75-4.61-23.66-2.34-2.92-5.78-4.59-9.07-6.19s-6.31-3.04-8.04-6.09-1.81-6.21-.59-9.37c.59-1.51-.64-3.29-2.1-3.69-1.7-.47-3.1,.58-3.69,2.1h0Z"/><path class="cls-3" d="M60.87,12.36c-3.6,1.63-6.44,5.72-7.14,9.56-.8,4.35-.27,8.95,2.36,12.63,2.32,3.26,5.29,5.77,8.8,7.68,2.56,1.4,5.26,2.53,7.6,4.31l-1.82-1.41c.88,.71,1.67,1.49,2.36,2.37l-1.41-1.82c.64,.87,1.17,1.78,1.61,2.77l-.91-2.15c.72,1.71,1.14,3.5,1.39,5.34l-.32-2.39c.9,6.96-.11,14.17,2.01,20.98,1.33,4.3,3.72,8.34,7.2,11.24,3.28,2.73,7.01,4.73,10.38,7.32l-1.82-1.41c1.48,1.17,2.78,2.49,3.94,3.97l-1.41-1.82c1.57,2.08,2.8,4.36,3.81,6.75l-.91-2.15c1.51,3.67,2.51,7.5,3.43,11.35,1.07,4.48,1.95,9.02,4.16,13.13,2.74,5.1,7.63,8.32,13.08,9.94,3.66,1.08,7.51,1.38,11.05,2.84l-2.15-.91c1.37,.6,2.63,1.36,3.82,2.26l-1.82-1.41c1.47,1.16,2.76,2.5,3.92,3.97l-1.41-1.82c1.93,2.53,3.43,5.32,4.68,8.24l-.91-2.15c4.23,10.15,6.46,21.72,15.18,29.26,4.78,4.13,10.71,7.09,17.18,6.89s12.38-3.23,17.37-7.47c3.93-3.34,7.12-7.63,10.01-11.86,2.52-3.7,4.7-7.64,6.52-11.73,4.22-9.47,6.77-19.21,7.75-29.54,1.85-19.67-3.49-39.47-14.41-55.86-5.83-8.74-12.83-16.67-20.24-24.09-3.51-3.51-7.11-6.93-10.73-10.33-4.22-3.96-8.54-8.03-13.7-10.73-10.3-5.39-22.15-6.62-33.53-7.98s-23.14-1.68-34.72,.15c-2.62,.41-5.21,.97-7.77,1.66-5.65,1.53-8.26,8.2-5.38,13.22,3.14,5.48,6.3,10.96,9.43,16.45,2.9,5.08,5.74,10.2,8.05,15.59l-.91-2.15c1.24,2.93,2.29,5.92,3.14,8.99,.8,2.89,1.5,5.82,2.55,8.64,1.29,3.45,2.88,6.65,4.9,9.72,1.78,2.72,3.64,5.37,5.39,8.11,3.4,5.29,6.58,10.72,9.53,16.28,3.17,5.96,5.66,12.28,10.02,17.52,2.15,2.59,4.97,4.48,7.44,6.73s4.62,4.71,6.64,7.32l-1.41-1.82c4.86,6.34,8.61,13.46,13.73,19.61,2.43,2.92,5.51,5.71,8.96,7.35,4.98,2.37,10.19,3.14,15.61,1.84,4.56-1.09,8.93-3.82,12.19-7.15,3.6-3.68,5.88-8.07,7.77-12.79,3.06-7.65,4.45-16.13,5.29-24.28,1.66-16.17-1.19-33.38-10.4-47.04-4.72-7.01-10.58-13.09-16.8-18.77-6.35-5.79-12.9-11.36-19.42-16.94-3.47-2.97-6.94-6.2-10.97-8.41s-8.48-3.46-13.01-4.25c-8.73-1.52-17.49-2.85-26.24-4.27l-6.62-1.08c-3.27-.53-6.3-.14-8.76,2.31-2.07,2.07-3.48,5.88-2.31,8.76,3.52,8.66,8.03,16.82,12.42,25.05,4.16,7.79,8.31,15.58,12.47,23.36,7.71,14.42,15.52,28.81,24.5,42.48,4.79,7.3,9.94,14.36,15.44,21.15,2.85,3.51,5.64,6.88,9.39,9.48,4.26,2.94,10.4,3.87,15.25,1.94,2.89-1.15,5.08-2.48,7.44-4.55,1.78-1.55,3.21-3.47,4.61-5.36,2.68-3.61,4.66-7.75,6.34-11.9,3.75-9.25,2.19-19-.16-28.39-2.09-8.32-4.71-16.52-7.84-24.51-1.71-4.37-3.48-8.52-6.35-12.24-1.72-2.22-3.57-3.95-5.92-5.55-2.08-1.41-4.53-2.33-6.85-3.23-1.85-.71-3.7-1.38-5.53-2.14l2.15,.91c-7-2.95-13.37-6.88-19.56-11.23s-11.98-8.44-18.79-11.32c-4.55-1.92-9.07-3.04-14.02-3.4-3.1-.23-6.26,1.88-7.77,4.46-1.66,2.84-1.55,6.23,0,9.08,7.93,14.59,18.25,27.7,26.36,42.18,6.88,12.28,12.1,25.47,19.77,37.31,4.56,7.04,9.92,13.73,16.53,18.94,1.61,1.27,3.07,2.19,5.17,2.48,1.92,.26,4.06,.01,5.74-1.07,1.3-.84,2.39-1.93,3.23-3.23,1.16-1.8,1.61-4.9,.91-6.94-4.37-12.62-8.84-25.22-13.41-37.77-4.47-12.29-9.04-24.64-15.14-36.24-3.85-7.33-8.74-16.67-18.36-16.43-3.19,.08-6.14,1.67-7.77,4.46-1.5,2.56-1.84,6.56,0,9.08,12.34,16.93,23.82,34.47,34.38,52.56,3.02,5.17,5.95,10.38,8.82,15.64,2.15,3.94,7.25,5.36,11.24,3.68,4.24-1.79,6.18-6.18,5.21-10.62l-10.87-50c-1-4.61-6.62-7.73-11.07-6.29-4.85,1.57-7.36,6.14-6.29,11.07l10.87,50,16.45-6.94c-10.03-18.39-20.98-36.27-32.83-53.54-3.38-4.94-6.84-9.82-10.37-14.66l-7.77,13.54c.36,0,.68,0,1.04,.06l-2.39-.32c.34,.07,.65,.16,.97,.28l-2.15-.91c.54,.24,1.01,.53,1.48,.87l-1.82-1.41c.76,.62,1.41,1.34,2.01,2.11l-1.41-1.82c2.38,3.22,4.22,6.93,6.03,10.49,1.91,3.77,3.66,7.61,5.31,11.5l-.91-2.15c6.23,14.79,11.4,30.07,16.73,45.2,1.56,4.43,3.11,8.87,4.65,13.31l15.04-8.76c-4.11-3.25-7.73-7.04-10.93-11.18l1.41,1.82c-7.28-9.49-12.35-20.39-17.63-31.05-2.78-5.62-5.65-11.19-8.88-16.58-3.55-5.93-7.41-11.67-11.23-17.43-4.41-6.65-8.78-13.35-12.59-20.36l-7.77,13.54c.66,.05,1.31,.12,1.97,.2l-2.39-.32c2.97,.43,5.82,1.28,8.58,2.43l-2.15-.91c7.53,3.22,14,8.35,20.71,12.94,3.59,2.46,7.3,4.73,11.2,6.68,4.68,2.35,9.6,4.05,14.42,6.07l-2.15-.91c1.41,.61,2.76,1.32,3.99,2.24l-1.82-1.41c1.03,.81,1.92,1.73,2.74,2.75l-1.41-1.82c1.61,2.11,2.79,4.47,3.82,6.9l-.91-2.15c2.4,5.74,4.43,11.64,6.22,17.59s3.61,12.2,4.45,18.45l-.32-2.39c.33,2.64,.41,5.29,.06,7.93l.32-2.39c-.36,2.36-1.06,4.62-1.98,6.82l.91-2.15c-1.49,3.44-3.34,6.82-5.61,9.8l1.41-1.82c-1.1,1.4-2.3,2.68-3.71,3.78l1.82-1.41c-.77,.57-1.58,1.06-2.45,1.46l2.15-.91c-.76,.32-1.51,.54-2.32,.67l2.39-.32c-.71,.08-1.4,.09-2.11,.01l2.39,.32c-.77-.12-1.48-.32-2.21-.61l2.15,.91c-.83-.38-1.58-.84-2.32-1.38l1.82,1.41c-1.94-1.52-3.52-3.41-5.09-5.29-1.74-2.08-3.43-4.19-5.08-6.33l1.41,1.82c-18.67-24.24-32.29-51.97-46.63-78.86-4.22-7.92-8.75-15.75-12.27-24.02l.91,2.15c-.18-.43-.36-.87-.54-1.31l-11.07,11.07,21.59,3.51c3.54,.57,7.07,1.13,10.61,1.73,3.25,.55,6.47,1.22,9.52,2.49l-2.15-.91c2.15,.94,4.09,2.18,5.95,3.61l-1.82-1.41c3.44,2.69,6.69,5.63,10,8.47,3.51,3.02,7.01,6.05,10.47,9.11,6.14,5.44,12.23,11,17.27,17.51l-1.41-1.82c2.85,3.74,5.28,7.75,7.14,12.08l-.91-2.15c2.05,4.88,3.38,10,4.11,15.24l-.32-2.39c.92,7,.78,14.07-.14,21.06l.32-2.39c-.91,6.67-2.31,13.49-4.89,19.73l.91-2.15c-1,2.34-2.21,4.56-3.76,6.58l1.41-1.82c-1,1.25-2.12,2.37-3.37,3.37l1.82-1.41c-1.27,.96-2.61,1.77-4.07,2.39l2.15-.91c-1.21,.48-2.45,.82-3.74,1l2.39-.32c-1.04,.11-2.06,.11-3.1,0l2.39,.32c-1.18-.17-2.31-.47-3.41-.92l2.15,.91c-1.3-.56-2.49-1.28-3.62-2.14l1.82,1.41c-1.93-1.51-3.58-3.32-5.09-5.25l1.41,1.82c-4.09-5.33-7.3-11.28-11.39-16.62-2.48-3.24-5.03-6.39-8.05-9.14-2.7-2.45-5.72-4.5-7.98-7.4l1.41,1.82c-2.55-3.43-4.19-7.46-6.12-11.26-2.03-3.99-4.18-7.93-6.44-11.8s-4.63-7.67-7.11-11.4-5.08-7.21-6.82-11.27l.91,2.15c-1.78-4.32-2.63-8.93-4.09-13.36-1.62-4.9-3.75-9.67-6.11-14.26-4.44-8.66-9.53-17.01-14.37-25.45l-5.38,13.22c3.16-.86,6.37-1.49,9.62-1.93l-2.39,.32c11.54-1.5,23.2-.56,34.69,.98l-2.39-.32c7.46,1.01,15.07,2.02,22.07,4.94l-2.15-.91c2.82,1.21,5.43,2.74,7.86,4.62l-1.82-1.41c3.13,2.47,5.98,5.27,8.88,8.01,2.68,2.53,5.35,5.09,7.96,7.69,5.31,5.29,10.42,10.79,15.01,16.73l-1.41-1.82c4.76,6.2,8.93,12.85,12.01,20.04l-.91-2.15c2.59,6.15,4.33,12.6,5.24,19.21l-.32-2.39c.95,7.13,.93,14.34-.02,21.46l.32-2.39c-.96,6.99-2.81,13.83-5.53,20.34l.91-2.15c-2.5,5.9-5.71,11.47-9.61,16.56l1.41-1.82c-2.09,2.7-4.36,5.24-7.04,7.36l1.82-1.41c-1.53,1.18-3.16,2.19-4.94,2.95l2.15-.91c-1.18,.47-2.37,.81-3.63,1l2.39-.32c-1.26,.16-2.5,.17-3.76,.01l2.39,.32c-1.22-.19-2.39-.51-3.54-.97l2.15,.91c-1.5-.64-2.87-1.46-4.16-2.45l1.82,1.41c-1.6-1.27-3.01-2.73-4.27-4.34l1.41,1.82c-1.76-2.33-3.1-4.91-4.24-7.59l.91,2.15c-1.83-4.37-3.15-8.92-4.92-13.31-2.04-5.04-4.39-9.51-7.89-13.71s-7.88-6.87-12.83-8.44c-3.73-1.19-7.71-1.44-11.36-2.92l2.15,.91c-.97-.42-1.88-.93-2.74-1.56l1.82,1.41c-.7-.55-1.31-1.16-1.86-1.85l1.41,1.82c-.73-.98-1.29-2.02-1.76-3.14l.91,2.15c-1.45-3.64-2.08-7.6-3.02-11.39-1.09-4.36-2.48-8.55-4.33-12.66s-4.34-7.67-7.54-10.54c-3.38-3.03-7.39-5.08-10.97-7.82l1.82,1.41c-1.1-.87-2.11-1.81-2.99-2.9l1.41,1.82c-.75-.98-1.37-2.03-1.87-3.16l.91,2.15c-.73-1.74-1.16-3.57-1.42-5.44l.32,2.39c-.93-7.07,.21-14.51-2.14-21.37-.69-2.03-1.54-4.08-2.78-5.85-1.85-2.63-3.8-4.48-6.43-6.35-3.15-2.24-6.9-3.44-10.01-5.77l1.82,1.41c-.89-.7-1.7-1.47-2.4-2.36l1.41,1.82c-.43-.59-.8-1.2-1.11-1.87l.91,2.15c-.23-.59-.39-1.17-.49-1.8l.32,2.39c-.07-.63-.08-1.24-.01-1.87l-.32,2.39c.09-.61,.23-1.19,.46-1.77l-.91,2.15c.2-.46,.44-.88,.74-1.28l-1.41,1.82c.25-.31,.52-.57,.82-.83l-1.82,1.41c.33-.24,.66-.43,1.03-.6,1.93-.87,3.6-3.42,4.14-5.38,.59-2.15,.33-5.02-.91-6.94s-3.08-3.61-5.38-4.14c-2.5-.57-4.61-.14-6.94,.91h0Z"/></g><path class="cls-4" d="M75.05,64.63c2.66,3.02,5.31,6.06,7.96,9.1,1.36,1.56,2.73,3.12,4.09,4.68,1.1,1.26,2.75,2.64,3.34,4.24,.41,1.11-.55,1.77-1.38,2.56-1.19,1.13-2.4,2.26-3.07,3.79-1.84,4.19,.68,8.29,3.41,11.39,3.07,3.5,6.33,6.85,9.49,10.26,2.8,3.02,5.57,6.18,9.19,8.24s7.43,2.56,11.01,.5c1.73-.99,3.49-1.95,5.01-3.25,.07-.06,.57-.45,.55-.51,.03,.1-.61,.03-.64,.05,.03-.02,.33,.13,.24,.06,.42,.36,1.13,.81,1.63,1.27,1.36,1.26,2.78,2.46,4.06,3.81,1.46,1.53,2.82,3.16,4.25,4.73,1.15,1.26,2.41,2.52,2.78,4.25,.34,1.56-.41,2.66-1.46,3.74-1.27,1.29-2.47,2.77-4.01,3.75-1.65,1.04-3.64,1.61-5.54,2-3.83,.79-7.84,.44-11.51-.88s-7.15-3.8-10.32-6.23-6.08-4.92-8.95-7.57c-5.79-5.36-11.14-11.23-15.85-17.55-2.38-3.19-4.63-6.5-6.71-9.89s-4.29-6.85-5.68-10.55c-1.29-3.44-1.35-6.76,.32-10.08s4.17-6.03,6.92-8.44c1.26-1.11,2.58-2.12,3.97-3.07,1.13-.78,1.65-2.24,.91-3.49-.66-1.12-2.35-1.7-3.49-.91-6.29,4.31-13.27,10.68-14.53,18.61-.73,4.62,.79,8.91,2.88,12.97,1.96,3.81,4.18,7.49,6.54,11.07,4.7,7.12,10.07,13.83,16.01,19.95s12.6,12.12,19.85,16.73c7.7,4.89,17.02,6.38,25.58,2.79,2.06-.86,3.76-2.11,5.34-3.68s3.26-3.04,4.15-5.02c1.93-4.29-.19-8.45-3.14-11.63-1.54-1.66-2.99-3.41-4.54-5.05-1.37-1.45-2.88-2.74-4.34-4.09s-3.13-2.69-5.2-2.64-3.42,1.83-5.08,2.86c-1.33,.82-2.88,2.03-4.49,2.14s-3.25-.71-4.6-1.57c-3.72-2.35-6.55-6.04-9.51-9.22l-5.23-5.65c-1.45-1.57-3.02-3.08-4.07-4.96-.7-1.25-1.06-2.62-.19-3.75,1.03-1.33,2.47-2.28,3.46-3.66,1.28-1.79,1.51-4.05,.69-6.08s-2.35-3.57-3.76-5.18c-2.89-3.3-5.77-6.6-8.66-9.9-1.35-1.55-2.7-3.09-4.06-4.63-.91-1.03-2.68-.93-3.61,0-1.03,1.03-.91,2.57,0,3.61h0Z"/></svg>