<?xml version="1.0" encoding="UTF-8"?><svg id="Layer_1" xmlns="http://www.w3.org/2000/svg" xmlns:xlink="http://www.w3.org/1999/xlink" viewBox="0 0 200 200"><defs><style>.cls-1,.cls-2{fill:none;}.cls-2{stroke:#fff;stroke-miterlimit:10;stroke-width:6px;}.cls-3{clip-path:url(#clippath);}.cls-4{fill:#f2949c;}.cls-5{fill:#ffb663;}</style><clipPath id="clippath"><circle class="cls-1" cx="100.35" cy="97.97" r="94"/></clipPath></defs><circle class="cls-5" cx="100.35" cy="97.97" r="94"/><g class="cls-3"><path class="cls-4" d="M47.76,17.88c-1.62,3.87-1.5,8.44,.09,12.3,1.68,4.08,4.78,6.89,8.57,9.02,3.11,1.74,6.68,3.12,9.01,5.6,2.53,2.68,2.73,6.77,2.71,10.47-.02,4.42-.16,8.77,.95,13.09s3.12,8.2,5.82,11.65,6.3,6.03,9.99,8.53c3.38,2.3,6.01,4.85,7.63,8.65,3.15,7.4,2.94,16.04,6.2,23.55,1.71,3.95,4.42,7.56,8.18,9.77s8.16,2.82,12.31,4.03c3.75,1.09,6.63,3.02,8.66,6.28s3.16,7.15,4.03,11.01c1.88,8.29,3.54,17.17,10.56,22.8,6.1,4.89,14.14,6.58,21.8,5.56,8.17-1.09,15.4-5.37,21.14-11.18,6.09-6.16,10.56-13.81,14.01-21.7,3.86-8.82,6.57-18.08,7.89-27.63,2.58-18.68,0-37.6-7.74-54.81-3.69-8.19-8.56-15.82-14.41-22.64-6.31-7.36-13.77-13.62-21.34-19.64s-15.45-12.5-24.68-16.29c-9-3.7-18.91-5.13-28.54-6.07-9.34-.92-18.77-.97-28.08,.27s-18.82,3.63-27.1,8.15c-3.58,1.95-6.99,4.9-7.88,9.07-.34,1.58,.47,3.24,2.1,3.69,1.49,.41,3.35-.5,3.69-2.1,.69-3.25,4.05-5.05,7.16-6.5,3.94-1.84,8.08-3.25,12.28-4.35,8.65-2.26,17.59-3.05,26.52-2.89s18.05,1.12,26.83,3.04c4.53,.99,9.04,2.3,13.23,4.3s7.99,4.54,11.68,7.28c7.42,5.51,14.74,11.33,21.5,17.62,6.41,5.97,12.07,12.59,16.61,20.1,8.93,14.76,13.48,31.91,13.19,49.14-.29,17.4-5.26,35.41-14.92,49.98-4.26,6.42-9.8,12.03-16.86,15.29-5.75,2.65-12.84,2.93-18.96,.71-2.82-1.02-5.53-2.84-7.62-5.29-.99-1.16-2.06-2.99-2.79-4.64-.81-1.84-1.36-3.8-1.86-5.74-2.03-7.94-3.01-16.47-8.7-22.84-2.85-3.19-6.7-4.96-10.77-6.04-3.72-.99-7.9-1.52-11.04-3.89-6.04-4.56-6.77-13.51-8.13-20.39-.78-3.97-1.79-7.93-3.69-11.54-2.04-3.86-5.16-6.64-8.72-9.07-3.26-2.23-6.44-4.35-8.88-7.52s-3.98-6.66-4.78-10.45c-1.71-8.05,1.48-17.05-4.15-24.15-2.33-2.93-5.71-4.67-8.97-6.36s-6.02-3.15-7.68-6.25c-1.56-2.92-1.58-6.26-.27-9.39,.63-1.5-.68-3.3-2.1-3.69-1.73-.48-3.06,.59-3.69,2.1h0Z"/><path class="cls-4" d="M62.15,8.96c-2.24,.94-4.34,1.91-5.96,3.81s-2.82,3.9-3.38,6.27c-1.01,4.25-.43,8.79,1.86,12.54,2.08,3.41,5.19,6.01,8.58,8.04,2.51,1.5,5.2,2.69,7.53,4.48l-1.82-1.41c.9,.73,1.71,1.52,2.42,2.44l-1.41-1.82c.65,.88,1.18,1.81,1.61,2.81l-.91-2.15c.63,1.52,1.01,3.1,1.24,4.73l-.32-2.39c.94,7.07-.26,14.2,1.43,21.22,1.05,4.35,3.37,8.47,6.62,11.56s6.82,5,10.18,7.58l-1.82-1.41c1.49,1.17,2.82,2.48,3.99,3.97l-1.41-1.82c1.5,1.97,2.68,4.13,3.65,6.4l-.91-2.15c1.51,3.65,2.47,7.49,3.3,11.35,1.02,4.73,1.79,9.37,3.84,13.8,2.49,5.39,7.41,8.73,12.88,10.59,3.6,1.22,7.42,1.62,10.94,3.1l-2.15-.91c1.27,.57,2.45,1.27,3.56,2.1l-1.82-1.41c1.51,1.17,2.81,2.53,3.99,4.03l-1.41-1.82c1.8,2.38,3.2,5,4.36,7.75l-.91-2.15c1.95,4.72,3.17,9.69,4.97,14.46,2.13,5.66,4.76,10.96,9.04,15.33,1.97,2.01,4.3,3.87,6.8,5.17,3.22,1.67,6.28,2.5,9.87,2.84,2.83,.27,5.94-.2,8.61-1.16s5.4-2.29,7.77-4.07c8.19-6.16,14.5-14.89,19.04-24.03,4.63-9.33,7.45-19.09,8.8-29.4,2.55-19.56-1.99-39.39-12.26-56.18-5.51-9.01-12.36-17.2-19.57-24.88-3.42-3.65-6.95-7.19-10.5-10.72-4.17-4.14-8.39-8.36-13.5-11.34-9.46-5.52-20.67-7.16-31.34-8.74-11.67-1.72-23.49-2.89-35.25-1.35-3.31,.43-6.58,.94-9.82,1.72-5.83,1.41-8.04,8.27-5.38,13.22,2.82,5.24,5.63,10.47,8.45,15.71,2.63,4.9,5.23,9.83,7.4,14.96l-.91-2.15c1.22,2.92,2.29,5.89,3.13,8.95s1.41,6.06,2.3,9.04c1.99,6.7,5.78,12.22,9.39,18.09,3.29,5.36,6.37,10.85,9.22,16.46,1.42,2.8,2.79,5.64,4.1,8.5,1.2,2.62,2.33,5.3,3.93,7.72,2.25,3.41,5.03,6.01,8.06,8.68,2.49,2.2,4.71,4.63,6.75,7.24l-1.41-1.82c4.59,5.96,7.89,12.76,12.34,18.8,2.76,3.75,5.68,7.06,9.63,9.61s8.72,3.85,13.21,3.4c3.27-.33,5.85-1.06,8.84-2.4,2.22-.99,4.14-2.46,6.02-4,3.37-2.76,6.02-6.65,7.85-10.58,3.5-7.52,5.61-15.71,6.78-23.91,.64-4.47,1.13-8.94,1.16-13.46,.04-4.48-.41-8.92-1.07-13.35-1.23-8.18-4.17-16.22-8.53-23.25s-10.28-13.55-16.37-19.43-12.54-11.69-18.9-17.44c-3.41-3.09-6.82-6.35-10.76-8.76s-8.54-3.79-13.06-4.72c-8.75-1.79-17.55-3.36-26.33-5.03l-6.59-1.26c-3.23-.62-6.35-.09-8.76,2.31-2.11,2.11-3.41,5.82-2.31,8.76,3.22,8.59,7.48,16.72,11.57,24.91s7.9,15.84,11.85,23.75c7.25,14.5,14.59,28.98,23.08,42.81,4.27,6.95,8.83,13.73,13.78,20.22,2.58,3.38,5.13,7.22,8.44,9.94,2.35,1.93,4.87,3.62,7.89,4.31s5.91,.7,8.8-.11c4.42-1.24,8.37-4.2,11.26-7.72s5.14-6.96,7-10.86c2.36-4.93,3.85-9.9,4.01-15.4,.14-4.86-.79-9.77-1.8-14.51-1.77-8.32-4.08-16.52-6.89-24.54-1.42-4.07-2.86-8.3-5.16-11.96-2.57-4.11-6.1-7.54-10.51-9.61-2.32-1.08-4.72-1.98-7.08-2.97l2.15,.91c-7.36-3.12-14.05-7.28-20.46-12.03-5.77-4.28-11.47-8.84-18.03-11.88-5-2.31-9.79-3.7-15.27-4.26-3.06-.31-6.29,1.93-7.77,4.46-1.7,2.9-1.48,6.17,0,9.08,7.5,14.73,17.39,28.07,25.09,42.68,6.57,12.48,11.44,25.84,18.78,37.92,4.37,7.19,9.64,14.06,16.13,19.47,1.57,1.31,3.1,2.2,5.17,2.48,1.92,.26,4.06,.01,5.74-1.07,3.27-2.11,5.37-6.26,4.14-10.16-4.02-12.74-8.15-25.45-12.37-38.12s-8.42-24.84-14.2-36.61c-3.71-7.55-8.31-16.69-18.03-16.72-3.17-.01-6.17,1.73-7.77,4.46s-1.79,6.49,0,9.08c11.87,17.26,22.87,35.11,32.92,53.48,2.87,5.25,5.67,10.54,8.39,15.87,.95,1.86,3.35,3.67,5.38,4.14s3.95,.35,5.86-.45c1.73-.73,3.4-1.98,4.3-3.68,1.18-2.24,1.38-4.44,.91-6.94l-9.49-50.28c-.4-2.11-2.34-4.33-4.14-5.38-1.93-1.13-4.77-1.61-6.94-.91s-4.28,2.05-5.38,4.14c-1.18,2.24-1.38,4.44-.91,6.94l9.49,50.28,16.45-6.94c-9.52-18.65-19.98-36.83-31.35-54.42-3.25-5.03-6.57-10-9.96-14.93l-7.77,13.54c.23,0,.47,0,.7,.03l-2.39-.32c.46,.07,.87,.19,1.3,.36l-2.15-.91c.42,.2,.8,.43,1.18,.7l-1.82-1.41c.67,.53,1.25,1.13,1.79,1.79l-1.41-1.82c1.94,2.53,3.35,5.52,4.78,8.35,1.55,3.09,2.98,6.23,4.32,9.41l-.91-2.15c3.28,7.8,6.05,15.81,8.73,23.83,2.87,8.57,5.69,17.16,8.46,25.76,1.57,4.87,3.12,9.74,4.66,14.61l15.04-8.76c-3.46-2.88-6.53-6.16-9.3-9.71l1.41,1.82c-7.49-9.73-12.47-21.05-17.57-32.14-2.63-5.73-5.33-11.44-8.39-16.96-3.46-6.25-7.28-12.29-11.06-18.35-4.31-6.9-8.58-13.84-12.28-21.09l-7.77,13.54c.39,.04,.78,.08,1.17,.14l-2.39-.32c2.81,.4,5.52,1.19,8.15,2.28l-2.15-.91c7.52,3.19,13.89,8.41,20.41,13.21,3.51,2.58,7.1,5.02,10.91,7.13,4.61,2.56,9.46,4.52,14.32,6.55l-2.15-.91c1.68,.72,3.31,1.52,4.78,2.62l-1.82-1.41c1.03,.81,1.92,1.73,2.74,2.76l-1.41-1.82c1.36,1.79,2.38,3.78,3.27,5.84l-.91-2.15c2.39,5.7,4.22,11.68,5.89,17.63s3.35,12.43,4.22,18.77l-.32-2.39c.36,2.8,.48,5.6,.15,8.41l.32-2.39c-.33,2.39-1.01,4.66-1.94,6.88l.91-2.15c-1.51,3.47-3.46,6.85-5.76,9.86l1.41-1.82c-1.18,1.5-2.48,2.89-4,4.06l1.82-1.41c-.87,.64-1.79,1.19-2.79,1.61l2.15-.91c-.65,.25-1.31,.44-2,.56l2.39-.32c-.83,.11-1.62,.11-2.45,0l2.39,.32c-.64-.11-1.23-.28-1.84-.51l2.15,.91c-.84-.36-1.59-.81-2.32-1.35l1.82,1.41c-2.63-2.05-4.63-4.85-6.65-7.46l1.41,1.82c-9.43-12.23-17.43-25.47-24.75-39.04-7.53-13.94-14.46-28.21-21.54-42.39-4.14-8.31-8.56-16.54-12.21-25.08l.91,2.15c-.55-1.3-1.07-2.61-1.57-3.93l-11.07,11.07,21,4c3.39,.65,6.77,1.28,10.16,1.94,3.23,.62,6.45,1.32,9.52,2.56l-2.15-.91c2.04,.87,3.89,1.98,5.65,3.32l-1.82-1.41c3.4,2.65,6.51,5.68,9.7,8.57s6.61,6.01,9.88,9.05c5.96,5.54,11.91,11.14,16.91,17.58l-1.41-1.82c3.06,3.98,5.68,8.24,7.64,12.86l-.91-2.15c1.94,4.67,3.21,9.55,3.91,14.55l-.32-2.39c.93,6.9,.77,13.88-.15,20.77l.32-2.39c-.99,7.12-2.62,14.38-5.41,21.02l.91-2.15c-1.01,2.34-2.22,4.56-3.75,6.59l1.41-1.82c-1.08,1.38-2.29,2.62-3.67,3.7l1.82-1.41c-1.27,.96-2.62,1.75-4.09,2.37l2.15-.91c-1.22,.48-2.45,.82-3.75,1l2.39-.32c-1.04,.11-2.06,.12-3.1,0l2.39,.32c-1.2-.17-2.33-.47-3.45-.93l2.15,.91c-1.3-.56-2.48-1.29-3.61-2.15l1.82,1.41c-1.72-1.37-3.2-2.98-4.54-4.72l1.41,1.82c-4.09-5.35-7.09-11.45-10.98-16.95-2.38-3.36-4.94-6.67-7.86-9.59-2.57-2.57-5.58-4.68-7.87-7.53l1.41,1.82c-2.6-3.39-4.12-7.42-5.92-11.26-1.9-4.06-3.93-8.06-6.06-11.99s-4.39-7.81-6.75-11.62-4.91-7.36-6.67-11.42l.91,2.15c-1.85-4.47-2.58-9.26-3.94-13.88-1.47-5.03-3.55-9.9-5.81-14.63-4.22-8.85-9.12-17.39-13.76-26.03l-5.38,13.22c2.45-.59,4.93-1.05,7.43-1.4l-2.39,.32c9.91-1.31,19.91-.71,29.78,.6l-2.39-.32c4.9,.66,9.79,1.45,14.64,2.38,4.51,.87,8.98,1.96,13.23,3.71l-2.15-.91c2.8,1.19,5.42,2.66,7.84,4.5l-1.82-1.41c2.95,2.3,5.57,4.98,8.22,7.61s5.06,5.04,7.54,7.61c4.96,5.13,9.75,10.42,14.12,16.07l-1.41-1.82c5.09,6.61,9.56,13.7,12.85,21.39l-.91-2.15c2.57,6.11,4.3,12.52,5.2,19.08l-.32-2.39c.94,7.06,.92,14.21-.02,21.27l.32-2.39c-.96,7.06-2.83,13.96-5.58,20.53l.91-2.15c-2.53,5.96-5.78,11.59-9.72,16.73l1.41-1.82c-2.35,3.02-4.89,5.9-7.91,8.27l1.82-1.41c-1.57,1.2-3.24,2.23-5.06,3.01l2.15-.91c-1.2,.48-2.42,.83-3.7,1.03l2.39-.32c-1.27,.17-2.52,.18-3.79,.02l2.39,.32c-1.2-.18-2.35-.5-3.47-.94l2.15,.91c-1.47-.62-2.81-1.43-4.08-2.39l1.82,1.41c-1.57-1.24-2.95-2.67-4.18-4.26l1.41,1.82c-1.63-2.17-2.88-4.54-3.95-7.03l.91,2.15c-2.99-7.19-4.55-14.88-8.16-21.83-3.9-7.51-10.17-13.31-18.34-15.75-3.28-.98-6.71-1.42-9.87-2.76l2.15,.91c-.95-.42-1.84-.92-2.68-1.54l1.82,1.41c-.68-.53-1.27-1.11-1.82-1.78l1.41,1.82c-.65-.86-1.17-1.77-1.62-2.76l.91,2.15c-1.52-3.62-2.02-7.64-2.85-11.46s-1.73-7.45-3.15-11c-1.89-4.7-4.22-9.02-7.82-12.67-3.17-3.21-7.17-5.39-10.73-8.12l1.82,1.41c-1.2-.95-2.31-1.97-3.28-3.15l1.41,1.82c-.77-1-1.39-2.07-1.9-3.24l.91,2.15c-.68-1.66-1.08-3.39-1.32-5.16l.32,2.39c-.89-7.2,.45-14.55-1.58-21.64-.59-2.07-1.44-4.16-2.6-5.98-1.71-2.67-3.71-4.59-6.21-6.48-3.14-2.37-6.89-3.75-10-6.16l1.82,1.41c-.82-.66-1.56-1.37-2.22-2.19l1.41,1.82c-.47-.63-.87-1.27-1.21-1.98l.91,2.15c-.24-.58-.41-1.16-.52-1.78l.32,2.39c-.09-.74-.1-1.44,0-2.18l-.32,2.39c.1-.61,.26-1.19,.5-1.76l-.91,2.15c.17-.36,.36-.7,.59-1.03l-1.41,1.82c.31-.4,.63-.73,1.03-1.04l-1.82,1.41c.25-.17,.5-.32,.77-.45l-2.15,.91,.28-.12c2.27-.95,4.08-1.92,5.38-4.14,1.13-1.93,1.61-4.77,.91-6.94s-2.05-4.28-4.14-5.38-4.76-1.82-6.94-.91h0Z"/></g><rect class="cls-2" x="63.85" y="69.47" width="73.5" height="56.5" rx="10.07" ry="10.07"/><path class="cls-2" d="M69.76,75.43c-2-1.99-.62-5.47,2.16-5.47l28.89-.04,28.47-.04c2.94,0,4.4,3.66,2.3,5.77l-12.48,12.53-15.65,15.71c-1.44,1.45-3.74,1.45-5.19,0l-15.69-15.66-12.81-12.79Z"/></svg>